<?xml version="1.0" standalone="no"?><!DOCTYPE svg PUBLIC "-//W3C//DTD SVG 1.1//EN" "http://www.w3.org/Graphics/SVG/1.1/DTD/svg11.dtd"><svg t="1516866026345" class="icon" style="" viewBox="0 0 1024 1024" version="1.1" xmlns="http://www.w3.org/2000/svg" p-id="3536" xmlns:xlink="http://www.w3.org/1999/xlink" width="200" height="200"><defs><style type="text/css"></style></defs><path d="M979.2 896c0 57.6-44.8 102.4-102.4 102.4h-736c-57.6 0-102.4-44.8-102.4-102.4V249.6c0-57.6 44.8-102.4 102.4-102.4h736c57.6 0 102.4 44.8 102.4 102.4v646.4z m-57.6-646.4c0-25.6-19.2-44.8-44.8-44.8h-736c-25.6 0-44.8 19.2-44.8 44.8v646.4c0 25.6 19.2 44.8 44.8 44.8h736c25.6 0 44.8-19.2 44.8-44.8V249.6z" fill="" p-id="3537"></path><path d="M819.2 896h-89.6c-6.4 0-12.8-6.4-12.8-12.8s6.4-12.8 12.8-12.8h89.6c12.8 0 25.6 0 25.6-32 0-6.4 6.4-12.8 19.2-12.8s19.2 6.4 19.2 12.8v6.4c-6.4 32-25.6 51.2-64 51.2zM864 780.8c-6.4 0-6.4 0-12.8-6.4 0 0-6.4-6.4-6.4-12.8s0-6.4 6.4-12.8 12.8-6.4 19.2 0c0 0 6.4 6.4 6.4 12.8s0 6.4-6.4 12.8c0 6.4-6.4 6.4-6.4 6.4zM262.4 556.8h-12.8c-6.4 0-12.8-6.4-12.8-12.8s6.4-12.8 12.8-12.8h12.8c6.4 0 12.8 6.4 12.8 12.8s-6.4 12.8-12.8 12.8zM364.8 556.8h-12.8c-6.4 0-12.8-6.4-12.8-12.8s6.4-12.8 12.8-12.8h12.8c6.4 0 12.8 6.4 12.8 12.8s-6.4 12.8-12.8 12.8zM467.2 556.8h-12.8c-6.4 0-12.8-6.4-12.8-12.8s6.4-12.8 12.8-12.8h12.8c6.4 0 12.8 6.4 12.8 12.8s-6.4 12.8-12.8 12.8zM550.4 556.8h-12.8c-6.4 0-12.8-6.4-12.8-12.8s6.4-12.8 12.8-12.8h12.8c6.4 0 12.8 6.4 12.8 12.8s0 12.8-12.8 12.8zM652.8 556.8h-12.8c-6.4 0-12.8-6.4-12.8-12.8s6.4-12.8 12.8-12.8h12.8c6.4 0 12.8 6.4 12.8 12.8s0 12.8-12.8 12.8zM761.6 556.8h-12.8c-6.4 0-12.8-6.4-12.8-12.8s6.4-12.8 12.8-12.8h12.8c6.4 0 12.8 6.4 12.8 12.8s-6.4 12.8-12.8 12.8z" fill="" p-id="3538"></path><path d="M262.4 646.4h-12.8c-6.4 0-12.8-6.4-12.8-12.8s6.4-12.8 12.8-12.8h12.8c6.4 0 12.8 6.4 12.8 12.8s-6.4 12.8-12.8 12.8zM364.8 646.4h-12.8c-6.4 0-12.8-6.4-12.8-12.8s6.4-12.8 12.8-12.8h12.8c6.4 0 12.8 6.4 12.8 12.8s-6.4 12.8-12.8 12.8zM467.2 646.4h-12.8c-6.4 0-12.8-6.4-12.8-12.8s6.4-12.8 12.8-12.8h12.8c6.4 0 12.8 6.4 12.8 12.8s-6.4 12.8-12.8 12.8zM550.4 646.4h-12.8c-6.4 0-12.8-6.4-12.8-12.8s6.4-12.8 12.8-12.8h12.8c6.4 0 12.8 6.4 12.8 12.8s0 12.8-12.8 12.8zM652.8 646.4h-12.8c-6.4 0-12.8-6.4-12.8-12.8s6.4-12.8 12.8-12.8h12.8c6.4 0 12.8 6.4 12.8 12.8s0 12.8-12.8 12.8zM761.6 646.4h-12.8c-6.4 0-12.8-6.4-12.8-12.8s6.4-12.8 12.8-12.8h12.8c6.4 0 12.8 6.4 12.8 12.8s-6.4 12.8-12.8 12.8z" fill="" p-id="3539"></path><path d="M262.4 819.2h-12.8c-6.4 0-12.8-6.4-12.8-12.8s6.4-12.8 12.8-12.8h12.8c6.4 0 12.8 6.4 12.8 12.8s-6.4 12.8-12.8 12.8zM364.8 819.2h-12.8c-6.4 0-12.8-6.4-12.8-12.8s6.4-12.8 12.8-12.8h12.8c6.4 0 12.8 6.4 12.8 12.8s-6.4 12.8-12.8 12.8zM467.2 819.2h-12.8c-6.4 0-12.8-6.4-12.8-12.8s6.4-12.8 12.8-12.8h12.8c6.4 0 12.8 6.4 12.8 12.8s-6.4 12.8-12.8 12.8zM550.4 819.2h-12.8c-6.4 0-12.8-6.4-12.8-12.8s6.4-12.8 12.8-12.8h12.8c6.4 0 12.8 6.4 12.8 12.8s0 12.8-12.8 12.8z" fill="" p-id="3540"></path><path d="M262.4 729.6h-12.8c-6.4 0-12.8-6.4-12.8-12.8s6.4-12.8 12.8-12.8h12.8c6.4 0 12.8 6.4 12.8 12.8s-6.4 12.8-12.8 12.8zM364.8 729.6h-12.8c-6.4 0-12.8-6.4-12.8-12.8s6.4-12.8 12.8-12.8h12.8c6.4 0 12.8 6.4 12.8 12.8s-6.4 12.8-12.8 12.8zM467.2 729.6h-12.8c-6.4 0-12.8-6.4-12.8-12.8s6.4-12.8 12.8-12.8h12.8c6.4 0 12.8 6.4 12.8 12.8s-6.4 12.8-12.8 12.8zM550.4 729.6h-12.8c-6.4 0-12.8-6.4-12.8-12.8s6.4-12.8 12.8-12.8h12.8c6.4 0 12.8 6.4 12.8 12.8s0 12.8-12.8 12.8zM652.8 729.6h-12.8c-6.4 0-12.8-6.4-12.8-12.8s6.4-12.8 12.8-12.8h12.8c6.4 0 12.8 6.4 12.8 12.8s0 12.8-12.8 12.8zM761.6 729.6h-12.8c-6.4 0-12.8-6.4-12.8-12.8s6.4-12.8 12.8-12.8h12.8c6.4 0 12.8 6.4 12.8 12.8s-6.4 12.8-12.8 12.8z" fill="" p-id="3541"></path><path d="M249.6 307.2c-19.2 0-32-12.8-32-32v-217.6c0-19.2 12.8-32 32-32s32 12.8 32 32v217.6c-6.4 19.2-19.2 32-32 32zM761.6 307.2c-19.2 0-32-12.8-32-32v-217.6c0-19.2 12.8-32 32-32s32 12.8 32 32v217.6c0 19.2-12.8 32-32 32z" fill="" p-id="3542"></path><path d="M947.2 422.4H64c-6.4 0-12.8-6.4-12.8-12.8s6.4-12.8 12.8-12.8h883.2c6.4 0 12.8 6.4 12.8 12.8s0 12.8-12.8 12.8z" fill="" p-id="3543"></path></svg>